<svg xmlns="http://www.w3.org/2000/svg" viewBox="0 0 64 64" width="64" height="64" role="img" aria-label="contasty">
  <title>contasty</title>
  <defs>
    <linearGradient id="ctyf" x1="0" y1="0" x2="0" y2="1">
      <stop offset="0" stop-color="#FFB347"/>
      <stop offset="1" stop-color="#FF7A18"/>
    </linearGradient>
  </defs>
  <rect x="2" y="2" width="60" height="60" rx="14" fill="url(#ctyf)"/>
  <g fill="none" stroke="#FFF7ED" stroke-width="5" stroke-linecap="round" stroke-linejoin="round">
    <path d="M24 13 C16 13 19 18 19 24 C19 30 17 31 13 32 C17 33 19 34 19 40 C19 46 16 51 24 51"/>
    <path d="M40 13 C48 13 45 18 45 24 C45 30 47 31 51 32 C47 33 45 34 45 40 C45 46 48 51 40 51"/>
  </g>
  <circle cx="32" cy="32" r="3.4" fill="#FFF7ED"/>
</svg>
