<svg xmlns="http://www.w3.org/2000/svg" viewBox="0 0 64 64" width="64" height="64" role="img" aria-label="contasty">
  <title>contasty</title>
  <defs>
    <linearGradient id="cty" x1="0" y1="0" x2="0" y2="1">
      <stop offset="0" stop-color="#FFB347"/>
      <stop offset="1" stop-color="#FF7A18"/>
    </linearGradient>
  </defs>

  <!-- tasty chip -->
  <rect x="2" y="2" width="60" height="60" rx="14" fill="url(#cty)"/>

  <!-- braces: the {} elision marker framing the stripped body -->
  <g fill="none" stroke="#FFF7ED" stroke-width="3" stroke-linecap="round" stroke-linejoin="round">
    <path d="M24 17 C19 17 21 20 21 24 C21 28 20 30 17 32 C20 34 21 36 21 40 C21 44 19 47 24 47"/>
    <path d="M40 17 C45 17 43 20 43 24 C43 28 44 30 47 32 C44 34 43 36 43 40 C43 44 45 47 40 47"/>
  </g>

  <!-- code lines compacting down to nothing -->
  <g fill="#FFF7ED">
    <rect x="26" y="22.8" width="12" height="2.6" rx="1.3"/>
    <rect x="26" y="30.7" width="8" height="2.6" rx="1.3" opacity="0.85"/>
    <rect x="26" y="38.6" width="4" height="2.6" rx="1.3" opacity="0.6"/>
  </g>

  <!-- spark: tasty context for the model -->
  <path d="M49 9.5 L50.5 13.5 L54.5 15 L50.5 16.5 L49 20.5 L47.5 16.5 L43.5 15 L47.5 13.5 Z" fill="#FFF7ED"/>
</svg>
